<mxfile host="app.diagrams.net" agent="Mozilla/5.0 (Macintosh; Intel Mac OS X 10_15_7) AppleWebKit/605.1.15 (KHTML, like Gecko) Version/18.0.1 Safari/605.1.15" version="24.8.6">
  <diagram id="C5RBs43oDa-KdzZeNtuy" name="Page-1">
    <mxGraphModel dx="1351" dy="879" grid="0" gridSize="10" guides="1" tooltips="1" connect="1" arrows="1" fold="1" page="1" pageScale="1" pageWidth="827" pageHeight="1169" math="0" shadow="0">
      <root>
        <mxCell id="WIyWlLk6GJQsqaUBKTNV-0" />
        <mxCell id="WIyWlLk6GJQsqaUBKTNV-1" parent="WIyWlLk6GJQsqaUBKTNV-0" />
        <mxCell id="dCcHSDOOJQg7EE9JDYHZ-0" value="Recipe" style="rounded=0;whiteSpace=wrap;html=1;" vertex="1" parent="WIyWlLk6GJQsqaUBKTNV-1">
          <mxGeometry x="321" y="381" width="93" height="38" as="geometry" />
        </mxCell>
        <mxCell id="dCcHSDOOJQg7EE9JDYHZ-3" value="Component" style="rounded=0;whiteSpace=wrap;html=1;" vertex="1" parent="WIyWlLk6GJQsqaUBKTNV-1">
          <mxGeometry x="623" y="378" width="89" height="44" as="geometry" />
        </mxCell>
        <mxCell id="dCcHSDOOJQg7EE9JDYHZ-5" value="ComponentOf" style="rhombus;whiteSpace=wrap;html=1;" vertex="1" parent="WIyWlLk6GJQsqaUBKTNV-1">
          <mxGeometry x="459" y="375" width="140" height="55" as="geometry" />
        </mxCell>
        <mxCell id="dCcHSDOOJQg7EE9JDYHZ-7" value="" style="endArrow=none;html=1;rounded=0;exitX=1;exitY=0.5;exitDx=0;exitDy=0;entryX=0;entryY=0.5;entryDx=0;entryDy=0;" edge="1" parent="WIyWlLk6GJQsqaUBKTNV-1" source="dCcHSDOOJQg7EE9JDYHZ-5" target="dCcHSDOOJQg7EE9JDYHZ-3">
          <mxGeometry width="50" height="50" relative="1" as="geometry">
            <mxPoint x="388" y="330" as="sourcePoint" />
            <mxPoint x="438" y="280" as="targetPoint" />
          </mxGeometry>
        </mxCell>
        <mxCell id="dCcHSDOOJQg7EE9JDYHZ-10" value="Ingredients" style="rounded=0;whiteSpace=wrap;html=1;" vertex="1" parent="WIyWlLk6GJQsqaUBKTNV-1">
          <mxGeometry x="457" y="189" width="92" height="38" as="geometry" />
        </mxCell>
        <mxCell id="dCcHSDOOJQg7EE9JDYHZ-11" value="In" style="rhombus;whiteSpace=wrap;html=1;" vertex="1" parent="WIyWlLk6GJQsqaUBKTNV-1">
          <mxGeometry x="490" y="314" width="74" height="35" as="geometry" />
        </mxCell>
        <mxCell id="dCcHSDOOJQg7EE9JDYHZ-13" value="" style="endArrow=none;html=1;rounded=0;exitX=0.5;exitY=0;exitDx=0;exitDy=0;entryX=0.5;entryY=1;entryDx=0;entryDy=0;" edge="1" parent="WIyWlLk6GJQsqaUBKTNV-1" source="dCcHSDOOJQg7EE9JDYHZ-5" target="dCcHSDOOJQg7EE9JDYHZ-11">
          <mxGeometry width="50" height="50" relative="1" as="geometry">
            <mxPoint x="388" y="330" as="sourcePoint" />
            <mxPoint x="438" y="280" as="targetPoint" />
          </mxGeometry>
        </mxCell>
        <mxCell id="dCcHSDOOJQg7EE9JDYHZ-14" value="" style="endArrow=none;html=1;rounded=0;exitX=0.5;exitY=0;exitDx=0;exitDy=0;entryX=0.5;entryY=1;entryDx=0;entryDy=0;" edge="1" parent="WIyWlLk6GJQsqaUBKTNV-1" source="dCcHSDOOJQg7EE9JDYHZ-11" target="dCcHSDOOJQg7EE9JDYHZ-10">
          <mxGeometry width="50" height="50" relative="1" as="geometry">
            <mxPoint x="388" y="330" as="sourcePoint" />
            <mxPoint x="438" y="280" as="targetPoint" />
          </mxGeometry>
        </mxCell>
        <mxCell id="dCcHSDOOJQg7EE9JDYHZ-15" value="" style="curved=1;endArrow=classic;html=1;rounded=0;exitX=0;exitY=0.5;exitDx=0;exitDy=0;entryX=1;entryY=0.5;entryDx=0;entryDy=0;" edge="1" parent="WIyWlLk6GJQsqaUBKTNV-1" source="dCcHSDOOJQg7EE9JDYHZ-5" target="dCcHSDOOJQg7EE9JDYHZ-0">
          <mxGeometry width="50" height="50" relative="1" as="geometry">
            <mxPoint x="388" y="330" as="sourcePoint" />
            <mxPoint x="401" y="312" as="targetPoint" />
            <Array as="points">
              <mxPoint x="438" y="330" />
              <mxPoint x="442" y="428" />
              <mxPoint x="388" y="280" />
            </Array>
          </mxGeometry>
        </mxCell>
      </root>
    </mxGraphModel>
  </diagram>
</mxfile>
